<svg width="25" height="25" viewBox="0 0 25 25" fill="none" xmlns="http://www.w3.org/2000/svg">
<path d="M16.5718 12.6283L24.9999 17.9564V7.0752L16.5718 12.6283Z" fill="white"/>
<path d="M0 7.0752V17.9564L8.42813 12.6283L0 7.0752Z" fill="white"/>
<path d="M23.4375 3.90625H1.56253C0.782843 3.90625 0.164093 4.4875 0.0469055 5.23594L12.5 13.4406L24.9532 5.23594C24.836 4.4875 24.2172 3.90625 23.4375 3.90625Z" fill="white"/>
<path d="M15.1407 13.5719L12.9298 15.0281C12.7985 15.1141 12.6501 15.1562 12.5001 15.1562C12.3501 15.1562 12.2016 15.1141 12.0704 15.0281L9.85944 13.5703L0.0500641 19.775C0.170377 20.5172 0.786002 21.0938 1.56256 21.0938H23.4376C24.2141 21.0938 24.8298 20.5172 24.9501 19.775L15.1407 13.5719Z" fill="white"/>
</svg>
