<svg width="20" height="20" viewBox="0 0 20 20" fill="none" xmlns="http://www.w3.org/2000/svg">
<g clip-path="url(#clip0)">
<path d="M13.2579 10.1024L20.0004 14.3649V5.65991L13.2579 10.1024Z" fill="#B40101"/>
<path d="M0 5.65991V14.3649L6.7425 10.1024L0 5.65991Z" fill="#B40101"/>
<path d="M18.75 3.125H1.25004C0.626287 3.125 0.131287 3.59 0.0375366 4.18875L10 10.7525L19.9625 4.18875C19.8688 3.59 19.3738 3.125 18.75 3.125Z" fill="#B40101"/>
<path d="M12.1121 10.8577L10.3434 12.0227C10.2384 12.0914 10.1196 12.1252 9.99961 12.1252C9.87961 12.1252 9.76086 12.0914 9.65586 12.0227L7.88711 10.8564L0.0396118 15.8202C0.135862 16.4139 0.628362 16.8752 1.24961 16.8752H18.7496C19.3709 16.8752 19.8634 16.4139 19.9596 15.8202L12.1121 10.8577Z" fill="#B40101"/>
</g>
<defs>
<clipPath id="clip0">
<rect width="20" height="20" fill="white"/>
</clipPath>
</defs>
</svg>
