<svg width="24" height="25" viewBox="0 0 24 25" fill="none" xmlns="http://www.w3.org/2000/svg">
<path d="M17.4 22.9165C13.3173 22.9109 9.40331 21.2191 6.5164 18.2119C3.62949 15.2047 2.00529 11.1276 2 6.87479C2 5.60396 2.48464 4.38519 3.34731 3.48657C4.20998 2.58796 5.38 2.08313 6.6 2.08313C6.85834 2.08108 7.11625 2.1055 7.37 2.15604C7.61531 2.19386 7.85647 2.25666 8.09 2.34354C8.25425 2.40357 8.40061 2.50722 8.51461 2.64424C8.62861 2.78126 8.7063 2.94691 8.74 3.12479L10.11 9.37479C10.1469 9.54444 10.1425 9.72102 10.0971 9.88842C10.0516 10.0558 9.96671 10.2087 9.85 10.3331C9.72 10.479 9.71 10.4894 8.48 11.156C9.46499 13.4069 11.1932 15.2145 13.35 16.2498C14 14.9581 14.01 14.9477 14.15 14.8123C14.2694 14.6907 14.4162 14.6022 14.5769 14.5549C14.7376 14.5076 14.9071 14.503 15.07 14.5415L21.07 15.9685C21.2353 16.0085 21.3881 16.0916 21.5141 16.2101C21.64 16.3285 21.735 16.4784 21.79 16.6456C21.8744 16.8929 21.938 17.1473 21.98 17.406C22.0202 17.6678 22.0403 17.9326 22.04 18.1977C22.0216 19.4631 21.5233 20.6695 20.654 21.5536C19.7847 22.4377 18.6149 22.9276 17.4 22.9165Z" fill="white"/>
</svg>
