<svg width="20" height="20" viewBox="0 0 20 20" fill="none" xmlns="http://www.w3.org/2000/svg">
<g clip-path="url(#clip0)">
<path d="M19.4558 14.678L16.6647 11.8869C15.6679 10.8901 13.9733 11.2889 13.5746 12.5847C13.2756 13.4819 12.2788 13.9803 11.3816 13.7809C9.38802 13.2825 6.69664 10.6908 6.19824 8.59746C5.8992 7.7003 6.49728 6.70349 7.39441 6.40448C8.69026 6.00576 9.08898 4.31119 8.09217 3.31438L5.30111 0.523324C4.50367 -0.174441 3.3075 -0.174441 2.60973 0.523324L0.7158 2.41726C-1.17813 4.41087 0.915161 9.69395 5.60015 14.3789C10.2851 19.0639 15.5682 21.2569 17.5618 19.2633L19.4558 17.3694C20.1536 16.5719 20.1536 15.3757 19.4558 14.678Z" fill="#B40101"/>
</g>
<defs>
<clipPath id="clip0">
<rect width="20" height="20" fill="white"/>
</clipPath>
</defs>
</svg>
