<svg width="25" height="25" viewBox="0 0 25 25" fill="none" xmlns="http://www.w3.org/2000/svg">
<g clip-path="url(#clip0)">
<path d="M19.9011 4.28113C18.3839 1.66277 15.689 0.0631104 12.6922 0.00197754C12.5642 -0.00065918 12.4355 -0.00065918 12.3075 0.00197754C9.31072 0.0631104 6.61579 1.66277 5.09851 4.28113C3.54763 6.9575 3.5052 10.1723 4.98498 12.8809L11.1843 24.2279C11.1871 24.2329 11.1899 24.238 11.1928 24.2429C11.4655 24.717 11.9542 25 12.4999 25C13.0456 25 13.5343 24.717 13.807 24.2429C13.8098 24.238 13.8126 24.2329 13.8154 24.2279L20.0148 12.8809C21.4945 10.1723 21.452 6.9575 19.9011 4.28113ZM12.4998 11.3281C10.5613 11.3281 8.9842 9.75105 8.9842 7.81252C8.9842 5.874 10.5613 4.2969 12.4998 4.2969C14.4384 4.2969 16.0155 5.874 16.0155 7.81252C16.0155 9.75105 14.4384 11.3281 12.4998 11.3281Z" fill="white"/>
</g>
<defs>
<clipPath id="clip0">
<rect width="25" height="25" fill="white"/>
</clipPath>
</defs>
</svg>
