<svg width="40" height="40" viewBox="0 0 40 40" fill="none" xmlns="http://www.w3.org/2000/svg">
<path d="M8.92872 35.7144C5.82442 35.7144 3.22731 33.2565 2.62942 30.0001H4.39013C4.92411 29.9997 5.35685 29.567 5.35724 29.033V25.253C5.35685 24.719 4.92403 24.2863 4.39013 24.2859H1.78583C1.39138 24.2859 1.07153 24.6057 1.07153 25.0002V28.5716C1.07153 33.298 4.59653 37.143 8.92864 37.143C9.3231 37.143 9.64294 36.8232 9.64294 36.4287C9.64302 36.0342 9.32317 35.7144 8.92872 35.7144ZM2.50013 25.7144H3.92872V28.5715H2.50013V25.7144Z" fill="white"/>
<path d="M22.5003 19.2855C24.0782 19.2855 25.3574 18.0063 25.3574 16.4284C25.3574 14.8505 24.0782 13.5713 22.5003 13.5713C20.9224 13.5713 19.6432 14.8505 19.6432 16.4284C19.6432 18.0063 20.9224 19.2855 22.5003 19.2855Z" fill="white"/>
<path d="M22.5001 32.8571C31.5734 32.8571 38.9287 25.5018 38.9287 16.4285C38.9189 7.35938 31.5693 0.00984375 22.5001 0C13.4268 0 6.07153 7.35531 6.07153 16.4286C6.07153 25.5019 13.4268 32.8571 22.5001 32.8571ZM26.7858 16.4286C26.7835 18.7945 24.8661 20.712 22.5001 20.7143C20.1332 20.7143 18.2144 18.7955 18.2144 16.4286C18.2144 14.0616 20.1332 12.1429 22.5001 12.1429C24.8671 12.1429 26.7858 14.0616 26.7858 16.4286ZM8.21442 17.1429C7.81997 17.1429 7.50013 16.8231 7.50013 16.4286C7.50958 8.1482 14.2197 1.43805 22.5001 1.42859C22.8946 1.42859 23.2144 1.74836 23.2144 2.14289C23.2144 2.53734 22.8947 2.85719 22.5001 2.85719C15.0083 2.86547 8.937 8.93672 8.92872 16.4286C8.92872 16.823 8.60888 17.1429 8.21442 17.1429Z" fill="white"/>
<path d="M32.389 31.4659L32.1419 31.4473C26.2719 35.2306 18.7313 35.2306 12.8612 31.4473C11.4747 31.5255 10.3828 32.6595 10.3569 34.048V40.0002H34.6426V34.048C34.6269 32.7509 33.6722 31.6569 32.389 31.4659Z" fill="white"/>
</svg>
