<svg width="1440" height="296" viewBox="0 0 1440 296" fill="none" xmlns="http://www.w3.org/2000/svg">
<path fill-rule="evenodd" clip-rule="evenodd" d="M0 122.756L60 93.7558C120 65.7558 240 7.75582 360 0.755824C480 -6.24418 600 36.7558 720 72.7558C840 108.756 960 137.756 1080 144.756C1200 151.756 1320 137.756 1380 129.756L1440 122.756V295.756H1380C1320 295.756 1200 295.756 1080 295.756C960 295.756 840 295.756 720 295.756C600 295.756 480 295.756 360 295.756C240 295.756 120 295.756 60 295.756H0V122.756Z" fill="#EEEEEE"/>
</svg>
