<svg width="40" height="40" viewBox="0 0 40 40" fill="none" xmlns="http://www.w3.org/2000/svg">
<path d="M23.75 17.5H16.25C16.0842 17.5 15.9253 17.5658 15.8081 17.6831C15.6908 17.8003 15.625 17.9592 15.625 18.125C15.625 18.2908 15.6908 18.4497 15.8081 18.5669C15.9253 18.6842 16.0842 18.75 16.25 18.75H23.75C23.9158 18.75 24.0747 18.6842 24.1919 18.5669C24.3092 18.4497 24.375 18.2908 24.375 18.125C24.375 17.9592 24.3092 17.8003 24.1919 17.6831C24.0747 17.5658 23.9158 17.5 23.75 17.5Z" fill="white"/>
<path d="M26.875 3.125C26.8748 2.9593 26.8089 2.80043 26.6917 2.68326C26.5746 2.56609 26.4157 2.50019 26.25 2.5H13.75C13.5843 2.50019 13.4254 2.56609 13.3083 2.68326C13.1911 2.80043 13.1252 2.9593 13.125 3.125V10.3661L16.692 13.933C16.75 13.9911 16.796 14.06 16.8274 14.1358C16.8588 14.2116 16.875 14.2929 16.875 14.375V16.25H23.125V14.375C23.125 14.2929 23.1412 14.2116 23.1726 14.1358C23.204 14.06 23.25 13.9911 23.308 13.933L26.875 10.3661V3.125ZM16.25 8.75C15.8792 8.75 15.5166 8.64003 15.2083 8.43401C14.9 8.22798 14.6596 7.93514 14.5177 7.59253C14.3758 7.24992 14.3387 6.87292 14.411 6.50921C14.4834 6.14549 14.662 5.8114 14.9242 5.54917C15.1864 5.28695 15.5205 5.10837 15.8842 5.03603C16.2479 4.96368 16.6249 5.00081 16.9675 5.14273C17.3101 5.28464 17.603 5.52496 17.809 5.83331C18.015 6.14165 18.125 6.50416 18.125 6.875C18.1244 7.37211 17.9267 7.8487 17.5752 8.20021C17.2237 8.55172 16.7471 8.74944 16.25 8.75ZM23.75 8.75C23.3792 8.75 23.0166 8.64003 22.7083 8.43401C22.4 8.22798 22.1596 7.93514 22.0177 7.59253C21.8758 7.24992 21.8387 6.87292 21.911 6.50921C21.9834 6.14549 22.162 5.8114 22.4242 5.54917C22.6864 5.28695 23.0205 5.10837 23.3842 5.03603C23.7479 4.96368 24.1249 5.00081 24.4675 5.14273C24.8101 5.28464 25.103 5.52496 25.309 5.83331C25.515 6.14165 25.625 6.50416 25.625 6.875C25.6244 7.37211 25.4267 7.8487 25.0752 8.20021C24.7237 8.55172 24.2471 8.74944 23.75 8.75Z" fill="white"/>
<path d="M23.75 7.5C24.0952 7.5 24.375 7.22018 24.375 6.875C24.375 6.52982 24.0952 6.25 23.75 6.25C23.4048 6.25 23.125 6.52982 23.125 6.875C23.125 7.22018 23.4048 7.5 23.75 7.5Z" fill="white"/>
<path d="M16.25 7.5C16.5952 7.5 16.875 7.22018 16.875 6.875C16.875 6.52982 16.5952 6.25 16.25 6.25C15.9048 6.25 15.625 6.52982 15.625 6.875C15.625 7.22018 15.9048 7.5 16.25 7.5Z" fill="white"/>
<path d="M28.125 4.375H29.375V9.375H28.125V4.375Z" fill="white"/>
<path d="M6.875 4.13625V9.61375L7.64758 10H9.375V3.75H7.64758L6.875 4.13625Z" fill="white"/>
<path d="M32.9988 6.875L30.9155 3.75H30.625V10H30.9155L32.9988 6.875Z" fill="white"/>
<path d="M10.625 4.375H11.875V9.375H10.625V4.375Z" fill="white"/>
<path d="M21.875 34.1994V32.9878L19.375 33.6128V34.8244L21.875 34.1994Z" fill="white"/>
<path d="M16.875 20H23.125V21.25H16.875V20Z" fill="white"/>
<path d="M20 28.75C20.3452 28.75 20.625 28.4702 20.625 28.125C20.625 27.7798 20.3452 27.5 20 27.5C19.6548 27.5 19.375 27.7798 19.375 28.125C19.375 28.4702 19.6548 28.75 20 28.75Z" fill="white"/>
<path d="M23.75 22.5H16.25C16.0842 22.5 15.9253 22.5658 15.8081 22.6831C15.6908 22.8003 15.625 22.9592 15.625 23.125C15.625 23.2908 15.6908 23.4497 15.8081 23.5669C15.9253 23.6842 16.0842 23.75 16.25 23.75H23.75C23.9158 23.75 24.0747 23.6842 24.1919 23.5669C24.3092 23.4497 24.375 23.2908 24.375 23.125C24.375 22.9592 24.3092 22.8003 24.1919 22.6831C24.0747 22.5658 23.9158 22.5 23.75 22.5Z" fill="white"/>
<path d="M16.875 35.625C16.8756 36.1221 17.0733 36.5987 17.4248 36.9502C17.7763 37.3017 18.2529 37.4994 18.75 37.5H21.25C21.7471 37.4994 22.2237 37.3017 22.5752 36.9502C22.9267 36.5987 23.1244 36.1221 23.125 35.625V35.1755L18.9016 36.2313C18.8094 36.2544 18.7132 36.2561 18.6203 36.2364C18.5274 36.2167 18.4402 36.1761 18.3654 36.1176C18.2905 36.0592 18.2299 35.9844 18.1883 35.8991C18.1467 35.8137 18.125 35.72 18.125 35.625V33.125C18.125 32.9856 18.1716 32.8502 18.2574 32.7404C18.3432 32.6305 18.4632 32.5525 18.5984 32.5187L23.125 31.387V25H16.875V35.625ZM20 26.25C20.3708 26.25 20.7334 26.36 21.0417 26.566C21.35 26.772 21.5904 27.0649 21.7323 27.4075C21.8742 27.7501 21.9113 28.1271 21.839 28.4908C21.7666 28.8545 21.588 29.1886 21.3258 29.4508C21.0636 29.713 20.7295 29.8916 20.3658 29.964C20.0021 30.0363 19.6251 29.9992 19.2825 29.8573C18.9399 29.7154 18.647 29.475 18.441 29.1667C18.235 28.8584 18.125 28.4958 18.125 28.125C18.1256 27.6279 18.3233 27.1513 18.6748 26.7998C19.0263 26.4483 19.5029 26.2506 20 26.25Z" fill="white"/>
</svg>
