<svg width="40" height="40" viewBox="0 0 40 40" fill="none" xmlns="http://www.w3.org/2000/svg">
<g clip-path="url(#clip0)">
<path d="M38.0605 16.2823C37.8488 15.9711 37.4998 15.78 37.1233 15.7696L36.2241 15.7451C35.5359 17.2785 34.2406 18.43 32.6277 18.9267L30.5816 24.5488C30.5744 24.5684 30.5623 24.5846 30.5549 24.6041L33.158 26.6688C33.4461 26.8988 33.8348 26.9834 34.2051 26.8783C34.5667 26.7766 34.8585 26.5052 34.9867 26.1516L38.1922 17.3421C38.3215 16.9886 38.2723 16.5937 38.0605 16.2823Z" fill="white"/>
<path d="M23.4339 19.8561C22.4961 20.0532 21.4087 19.963 20.4106 19.5998L3.45148 13.4283L3.45031 13.4279C3.07382 13.2904 2.72031 13.1176 2.39101 12.9155L1.94984 14.1276C1.28578 15.9521 2.22656 17.9696 4.05101 18.6336L23.8727 25.8481C25.6971 26.5124 27.7146 25.5715 28.3786 23.747L30.0048 19.2791L23.4339 19.8561Z" fill="white"/>
<path d="M32.4883 9.0313L8.26221 0.213504C6.42815 -0.453213 4.41886 0.49491 3.75565 2.31467L2.15292 6.71888C1.48472 8.55224 2.43503 10.5626 4.25409 11.2257L21.2062 17.395C21.7776 17.6039 22.4941 17.6911 23.0634 17.5358L31.7449 16.7738C32.8904 16.4946 33.8151 15.6671 34.2168 14.5605L34.5895 13.5368C35.2563 11.7072 34.3117 9.69575 32.4883 9.0313ZM13.9662 8.52466C13.7449 9.13278 13.0724 9.4463 12.4642 9.22505L8.05947 7.62185C7.45119 7.40036 7.13768 6.72794 7.35893 6.11982C7.58033 5.51154 8.25283 5.19818 8.86096 5.41943L13.2658 7.02263C13.8739 7.24396 14.1876 7.91638 13.9662 8.52466Z" fill="white"/>
<path d="M14.6274 24.9778V28.1252C14.6274 29.4172 13.5756 30.4689 12.2836 30.4689H6.42425V29.2971C6.42425 27.3554 4.85027 25.7815 2.90863 25.7815C2.26144 25.7815 1.73676 26.306 1.73676 26.9533V38.8283C1.73676 39.4755 2.26144 40.0002 2.90863 40.0002C4.85027 40.0002 6.42425 38.4262 6.42425 36.4846V35.1564H12.2836C16.1609 35.1564 19.3148 32.0025 19.3148 28.1252V26.6843L14.6274 24.9778Z" fill="white"/>
</g>
<defs>
<clipPath id="clip0">
<rect width="40" height="40" fill="white"/>
</clipPath>
</defs>
</svg>
