<svg width="40" height="40" viewBox="0 0 40 40" fill="none" xmlns="http://www.w3.org/2000/svg">
<g clip-path="url(#clip0)">
<path d="M1.69492 4.83398C1.4263 4.9862 1.29445 5.30068 1.3742 5.59895C1.45395 5.89723 1.72516 6.10394 2.0339 6.10178C2.29153 6.10178 2.0339 6.1967 6.38644 3.71534C6.78462 4.39264 7.53728 4.78003 8.31987 4.71047C9.10245 4.6409 9.77499 4.12683 10.0475 3.38992H13.6068C14.1336 3.38992 14.6389 3.5992 15.0114 3.97173C15.3839 4.34426 15.5932 4.84952 15.5932 5.37636C15.5921 6.91132 16.6387 8.24889 18.1288 8.61704L19.7898 9.03059C19.7235 9.36206 19.9115 9.69174 20.2305 9.80348L24.7322 11.3357C24.9148 11.3981 25.1153 11.3798 25.2836 11.2853C25.4518 11.1909 25.5718 11.0292 25.6136 10.8408L26.1627 8.34585C26.2043 8.15754 26.1637 7.96042 26.0512 7.80384C25.9386 7.64726 25.7646 7.54604 25.5729 7.52551L20.8271 7.02382C20.4841 6.98818 20.1689 7.21578 20.0949 7.55263L20.061 7.70856L18.4407 7.30178C17.5608 7.07792 16.946 6.28425 16.9492 5.37636C16.9492 3.53042 15.4527 2.03398 13.6068 2.03398H10.0407C9.7435 1.23919 8.98413 0.712402 8.13559 0.712402C7.28706 0.712402 6.52768 1.23919 6.23051 2.03398H0.677966C0.303536 2.03398 0 2.33752 0 2.71195C0 3.08638 0.303536 3.38992 0.677966 3.38992H4.22373L1.69492 4.83398Z" fill="white"/>
<path d="M2.03363 37.9663C2.03363 38.3407 2.33717 38.6442 2.7116 38.6442H13.5591C13.9335 38.6442 14.237 38.3407 14.237 37.9663V35.9324H2.03363V37.9663Z" fill="white"/>
<path d="M4.74545 14.9153H11.5251V26.4407H4.74545V14.9153Z" fill="white"/>
<path d="M2.03408 14.2375L2.03397 34.5765H14.2375L14.2375 14.2375C14.2409 13.0299 13.8819 11.849 13.207 10.8477H3.03747C2.37583 11.8538 2.02671 13.0333 2.03408 14.2375ZM3.39001 14.9155C3.39001 14.1666 3.99708 13.5595 4.74594 13.5595H11.5256C12.2745 13.5595 12.8815 14.1666 12.8815 14.9155V26.4409C12.8815 27.1897 12.2745 27.7968 11.5256 27.7968H4.74594C3.99708 27.7968 3.39001 27.1897 3.39001 26.4409V14.9155ZM4.06798 29.1527H12.2036C12.578 29.1527 12.8815 29.4563 12.8815 29.8307C12.8815 30.2051 12.578 30.5087 12.2036 30.5087H4.06798C3.69355 30.5087 3.39001 30.2051 3.39001 29.8307C3.39001 29.4563 3.69355 29.1527 4.06798 29.1527Z" fill="white"/>
<path d="M6.77942 5.81689V7.29486C6.77669 7.8556 6.42907 8.35682 5.90484 8.55588C5.32578 8.78626 4.78425 9.10158 4.29807 9.49147H11.9659C11.4854 9.10054 10.9481 8.78506 10.3726 8.55588C9.84574 8.35903 9.49508 7.85732 9.49128 7.29486V5.81689C8.6267 6.19423 7.644 6.19423 6.77942 5.81689Z" fill="white"/>
<path d="M26.651 32.8746C25.8442 34.9085 27.329 38.6441 29.8306 38.6441C33.2883 38.6441 35.0781 31.4916 30.4137 29.8306C31.0578 31.8645 28.7798 33.8509 26.651 32.8746Z" fill="white"/>
<path d="M24.7456 23.1865C25.6677 25.0848 26.5965 28.4069 23.8236 28.4069C22.027 28.4069 21.3965 27.0509 21.1728 26.0408C21.1401 25.8966 21.0179 25.7902 20.8706 25.7778C20.7233 25.7654 20.585 25.8498 20.5287 25.9865C20.1355 26.9153 19.6609 28.6713 19.6609 31.7289C19.6609 36.1085 23.2406 38.5085 27.3965 39.1255C25.4561 37.4838 24.6599 34.8562 25.3626 32.4136C25.4923 32.0553 25.7669 31.768 26.119 31.6223C26.4712 31.4765 26.8684 31.4857 27.2134 31.6475C27.6733 31.8582 28.2121 31.7954 28.6112 31.4847C29.0102 31.174 29.2032 30.667 29.1117 30.1696C28.987 29.686 29.1381 29.1729 29.5051 28.8343C29.8722 28.4956 30.3957 28.3861 30.8677 28.5492C35.749 30.2984 35.3762 36.7323 32.2643 39.1255C36.4202 38.4746 39.9999 36.1085 39.9999 31.7289C39.9999 28.6713 39.5253 26.9153 39.1321 25.9865C39.0758 25.8498 38.9375 25.7654 38.7902 25.7778C38.6429 25.7902 38.5207 25.8966 38.488 26.0408C38.2643 27.0238 37.6338 28.4069 35.8372 28.4069C33.0643 28.4069 33.9931 25.0848 34.9151 23.1865C35.6948 21.5933 36.7999 18.6509 34.0948 16.3391C32.8134 15.2475 31.0168 13.9052 30.1151 12.373C30.0578 12.2694 29.9488 12.2051 29.8304 12.2051C29.712 12.2051 29.603 12.2694 29.5457 12.373C28.644 13.9052 26.8338 15.2475 25.566 16.3391C22.8609 18.6509 23.966 21.5933 24.7456 23.1865Z" fill="white"/>
</g>
<defs>
<clipPath id="clip0">
<rect width="40" height="40" fill="white"/>
</clipPath>
</defs>
</svg>
