<svg width="40" height="40" viewBox="0 0 40 40" fill="none" xmlns="http://www.w3.org/2000/svg">
<path d="M20 25C21.7259 25 23.125 23.6009 23.125 21.875C23.125 20.1491 21.7259 18.75 20 18.75C18.2741 18.75 16.875 20.1491 16.875 21.875C16.875 23.6009 18.2741 25 20 25Z" fill="white"/>
<path d="M11.875 23.0745L13.3745 21.8749L11.875 20.6753V23.0745Z" fill="white"/>
<path d="M29.6875 13.75H10.3125C10.0639 13.7503 9.82564 13.8491 9.64988 14.0249C9.47413 14.2006 9.37527 14.4389 9.375 14.6875V29.0625C9.37527 29.3111 9.47413 29.5494 9.64988 29.7251C9.82564 29.9009 10.0639 29.9997 10.3125 30H29.6875C29.9361 29.9997 30.1744 29.9009 30.3501 29.7251C30.5259 29.5494 30.6247 29.3111 30.625 29.0625V14.6875C30.6247 14.4389 30.5259 14.2006 30.3501 14.0249C30.1744 13.8491 29.9361 13.7503 29.6875 13.75ZM13.125 17.1875C13.1257 16.6075 13.3563 16.0515 13.7664 15.6414C14.1765 15.2313 14.7325 15.0007 15.3125 15H24.6875C25.2675 15.0007 25.8235 15.2313 26.2336 15.6414C26.6437 16.0515 26.8743 16.6075 26.875 17.1875V18.75H25.625V17.1875C25.6247 16.9389 25.5259 16.7006 25.3501 16.5249C25.1744 16.3491 24.9361 16.2503 24.6875 16.25H15.3125C15.0639 16.2503 14.8256 16.3491 14.6499 16.5249C14.4741 16.7006 14.3753 16.9389 14.375 17.1875V18.75H13.125V17.1875ZM24.375 21.875C24.375 22.7403 24.1184 23.5862 23.6377 24.3056C23.1569 25.0251 22.4737 25.5858 21.6742 25.917C20.8748 26.2481 19.9951 26.3347 19.1465 26.1659C18.2978 25.9971 17.5183 25.5804 16.9064 24.9686C16.2946 24.3567 15.8779 23.5772 15.7091 22.7285C15.5403 21.8799 15.6269 21.0002 15.958 20.2008C16.2892 19.4013 16.8499 18.7181 17.5694 18.2373C18.2888 17.7566 19.1347 17.5 20 17.5C21.1599 17.5013 22.272 17.9627 23.0922 18.7828C23.9123 19.603 24.3737 20.7151 24.375 21.875ZM11.25 25C11.0842 25 10.9253 24.9342 10.8081 24.8169C10.6908 24.6997 10.625 24.5408 10.625 24.375V19.375C10.625 19.2572 10.6582 19.1419 10.7209 19.0422C10.7836 18.9425 10.8732 18.8625 10.9793 18.8115C11.0854 18.7605 11.2038 18.7405 11.3208 18.7539C11.4378 18.7672 11.5487 18.8134 11.6406 18.887L14.7656 21.387C14.8388 21.4455 14.8979 21.5198 14.9385 21.6043C14.9791 21.6887 15.0002 21.7813 15.0002 21.875C15.0002 21.9687 14.9791 22.0613 14.9385 22.1457C14.8979 22.2302 14.8388 22.3045 14.7656 22.363L11.6406 24.863C11.5298 24.9517 11.392 25 11.25 25ZM26.875 26.5625C26.8743 27.1425 26.6437 27.6985 26.2336 28.1086C25.8235 28.5187 25.2675 28.7493 24.6875 28.75H15.3125C14.7325 28.7493 14.1765 28.5187 13.7664 28.1086C13.3563 27.6985 13.1257 27.1425 13.125 26.5625V25H14.375V26.5625C14.3753 26.8111 14.4741 27.0494 14.6499 27.2251C14.8256 27.4009 15.0639 27.4997 15.3125 27.5H24.6875C24.9361 27.4997 25.1744 27.4009 25.3501 27.2251C25.5259 27.0494 25.6247 26.8111 25.625 26.5625V25H26.875V26.5625ZM29.375 24.375C29.375 24.4928 29.3418 24.6081 29.2791 24.7078C29.2164 24.8075 29.1268 24.8875 29.0207 24.9385C28.9146 24.9895 28.7962 25.0095 28.6792 24.9961C28.5622 24.9828 28.4513 24.9366 28.3594 24.863L25.2344 22.363C25.1612 22.3045 25.1021 22.2302 25.0615 22.1457C25.0209 22.0613 24.9998 21.9687 24.9998 21.875C24.9998 21.7813 25.0209 21.6887 25.0615 21.6043C25.1021 21.5198 25.1612 21.4455 25.2344 21.387L28.3594 18.887C28.4513 18.8134 28.5622 18.7672 28.6792 18.7539C28.7962 18.7405 28.9146 18.7605 29.0207 18.8115C29.1268 18.8625 29.2164 18.9425 29.2791 19.0422C29.3418 19.1419 29.375 19.2572 29.375 19.375V24.375Z" fill="white"/>
<path d="M28.1257 23.0745V20.6753L26.6263 21.8749L28.1257 23.0745Z" fill="white"/>
<path d="M4.375 0V40H35.625V0H4.375ZM34.375 37.3438C34.3746 37.7166 34.2263 38.074 33.9626 38.3376C33.699 38.6013 33.3416 38.7496 32.9688 38.75H7.03125C6.65842 38.7496 6.30099 38.6013 6.03736 38.3376C5.77373 38.074 5.62543 37.7166 5.625 37.3438V2.65625C5.62543 2.28342 5.77373 1.92599 6.03736 1.66236C6.30099 1.39873 6.65842 1.25043 7.03125 1.25H32.9688C33.3416 1.25043 33.699 1.39873 33.9626 1.66236C34.2263 1.92599 34.3746 2.28342 34.375 2.65625V37.3438Z" fill="white"/>
<path d="M32.9688 2.5H7.03125C6.98981 2.5 6.95007 2.51646 6.92076 2.54576C6.89146 2.57507 6.875 2.61481 6.875 2.65625V37.3438C6.875 37.3852 6.89146 37.4249 6.92076 37.4542C6.95007 37.4835 6.98981 37.5 7.03125 37.5H32.9688C33.0102 37.5 33.0499 37.4835 33.0792 37.4542C33.1085 37.4249 33.125 37.3852 33.125 37.3438V2.65625C33.125 2.61481 33.1085 2.57507 33.0792 2.54576C33.0499 2.51646 33.0102 2.5 32.9688 2.5ZM25.625 5C25.625 4.83424 25.6908 4.67527 25.8081 4.55806C25.9253 4.44085 26.0842 4.375 26.25 4.375H28.75V5.625H26.875V6.875H28.75V8.125H26.875V9.375H28.75V10.625H26.25C26.0842 10.625 25.9253 10.5592 25.8081 10.4419C25.6908 10.3247 25.625 10.1658 25.625 10V5ZM20 5C20 4.83424 20.0658 4.67527 20.1831 4.55806C20.3003 4.44085 20.4592 4.375 20.625 4.375H23.125C23.2908 4.375 23.4497 4.44085 23.5669 4.55806C23.6842 4.67527 23.75 4.83424 23.75 5V6.71875C23.7501 6.91078 23.7107 7.10078 23.6344 7.27698C23.5581 7.45318 23.4464 7.61184 23.3063 7.74312C23.5946 8.12248 23.7505 8.58599 23.75 9.0625V10.625H22.5V9.0625C22.4997 8.81394 22.4009 8.57564 22.2251 8.39988C22.0494 8.22413 21.8111 8.12527 21.5625 8.125H21.25V10.625H20V5ZM16.875 4.375H18.125V10.625H16.875V4.375ZM11.875 5C11.875 4.83424 11.9408 4.67527 12.0581 4.55806C12.1753 4.44085 12.3342 4.375 12.5 4.375H15V5.625H13.125V6.875H15V8.125H13.125V10.625H11.875V5ZM8.125 3.75H9.375V5H8.125V3.75ZM9.375 36.25H8.125V35H9.375V36.25ZM25 35H15V33.75H25V35ZM31.875 36.25H30.625V35H31.875V36.25ZM31.875 29.0625C31.8743 29.6425 31.6437 30.1985 31.2336 30.6086C30.8235 31.0187 30.2675 31.2493 29.6875 31.25H10.3125C9.73254 31.2493 9.17653 31.0187 8.76643 30.6086C8.35634 30.1985 8.12566 29.6425 8.125 29.0625V14.6875C8.12566 14.1075 8.35634 13.5515 8.76643 13.1414C9.17653 12.7313 9.73254 12.5007 10.3125 12.5H29.6875C30.2675 12.5007 30.8235 12.7313 31.2336 13.1414C31.6437 13.5515 31.8743 14.1075 31.875 14.6875V29.0625ZM31.875 5H30.625V3.75H31.875V5Z" fill="white"/>
<path d="M22.5 6.71875V5.625H21.25V6.875H22.3438C22.3852 6.875 22.4249 6.85854 22.4542 6.82924C22.4835 6.79993 22.5 6.76019 22.5 6.71875Z" fill="white"/>
</svg>
