<svg width="40" height="40" viewBox="0 0 40 40" fill="none" xmlns="http://www.w3.org/2000/svg">
<path d="M32.5953 7.20672C32.3937 6.88461 30.625 4.01641 30.625 2.5C30.625 0.934609 31.5596 0 33.125 0C34.6904 0 35.625 0.934609 35.625 2.5C35.625 4.01641 33.8563 6.88461 33.6547 7.20672C33.5972 7.29473 33.5186 7.36702 33.4261 7.41706C33.3336 7.46709 33.2301 7.49329 33.125 7.49329C33.0199 7.49329 32.9164 7.46709 32.8239 7.41706C32.7314 7.36702 32.6528 7.29473 32.5953 7.20672Z" fill="white"/>
<path d="M35.0245 7.95236C35.102 7.68259 35.8053 5.29306 36.6317 4.46674C37.4866 3.61197 38.5605 3.51283 39.399 4.35111C40.2428 5.19439 40.1404 6.269 39.2833 7.1183C38.4571 7.9447 36.0675 8.64798 35.7978 8.72548C35.6908 8.75355 35.5783 8.75311 35.4716 8.72421C35.3648 8.69531 35.2675 8.63896 35.1893 8.56077C35.1111 8.48258 35.0547 8.38527 35.0258 8.27853C34.9969 8.17179 34.9964 8.05934 35.0245 7.95236Z" fill="white"/>
<path d="M24.0624 23.125C22.8881 23.125 21.7402 23.4732 20.7637 24.1257C19.7873 24.7781 19.0263 25.7054 18.5769 26.7903C18.1275 27.8753 18.0099 29.0691 18.239 30.2208C18.4681 31.3726 19.0336 32.4306 19.864 33.2609C20.6944 34.0913 21.7523 34.6568 22.9041 34.8859C24.0558 35.115 25.2497 34.9974 26.3346 34.548C27.4196 34.0986 28.3469 33.3376 28.9993 32.3612C29.6517 31.3848 29.9999 30.2368 29.9999 29.0625C29.9981 27.4883 29.372 25.9791 28.2589 24.866C27.1458 23.7529 25.6366 23.1268 24.0624 23.125ZM24.0624 32.5C23.3826 32.5 22.718 32.2984 22.1527 31.9207C21.5874 31.543 21.1468 31.0061 20.8866 30.378C20.6264 29.7499 20.5584 29.0587 20.691 28.3919C20.8236 27.7251 21.151 27.1126 21.6318 26.6318C22.1125 26.1511 22.725 25.8237 23.3918 25.6911C24.0586 25.5584 24.7498 25.6265 25.3779 25.8867C26.006 26.1468 26.5429 26.5874 26.9206 27.1527C27.2983 27.718 27.4999 28.3826 27.4999 29.0625C27.4989 29.9739 27.1364 30.8476 26.492 31.4921C25.8476 32.1365 24.9738 32.499 24.0624 32.5Z" fill="white"/>
<path d="M30.4532 8.72574C30.1835 8.64824 27.7939 7.94496 26.9677 7.11855C26.1105 6.26918 26.0085 5.19457 26.8517 4.3516C27.6902 3.51332 28.764 3.61246 29.6189 4.46723C30.4454 5.29324 31.1489 7.68277 31.2267 7.95254C31.2547 8.05954 31.2543 8.17202 31.2254 8.27879C31.1965 8.38556 31.1401 8.4829 31.0618 8.5611C30.9836 8.63931 30.8863 8.69566 30.7795 8.72455C30.6727 8.75343 30.5602 8.75384 30.4532 8.72574Z" fill="white"/>
<path d="M35.625 14.375H34.865L34.3712 9.93094C34.3542 9.77808 34.2814 9.63685 34.1668 9.53428C34.0522 9.43171 33.9038 9.375 33.75 9.375H32.5C32.3462 9.375 32.1978 9.43171 32.0832 9.53428C31.9686 9.63685 31.8958 9.77808 31.8788 9.93094L31.385 14.375H30.625C30.4592 14.375 30.3003 14.4408 30.1831 14.5581C30.0658 14.6753 30 14.8342 30 15V16.875C30 17.0408 30.0658 17.1997 30.1831 17.3169C30.3003 17.4342 30.4592 17.5 30.625 17.5H35.625C35.7908 17.5 35.9497 17.4342 36.0669 17.3169C36.1842 17.1997 36.25 17.0408 36.25 16.875V15C36.25 14.8342 36.1842 14.6753 36.0669 14.5581C35.9497 14.4408 35.7908 14.375 35.625 14.375Z" fill="white"/>
<path d="M13.75 11.25H13.125V5.625C13.1231 5.45906 13.0561 5.30051 12.9383 5.18358C12.8206 5.06665 12.6616 5.00071 12.4956 5L10.625 5.01305V3.125C10.625 2.95924 10.5592 2.80027 10.4419 2.68306C10.3247 2.56585 10.1658 2.5 10 2.5H8.125V1.25H10C10.1658 1.25 10.3247 1.18415 10.4419 1.06694C10.5592 0.949732 10.625 0.79076 10.625 0.625C10.625 0.45924 10.5592 0.300269 10.4419 0.183058C10.3247 0.065848 10.1658 0 10 0L4.92188 0C4.75611 0 4.59714 0.065848 4.47993 0.183058C4.36272 0.300269 4.29688 0.45924 4.29688 0.625C4.29688 0.79076 4.36272 0.949732 4.47993 1.06694C4.59714 1.18415 4.75611 1.25 4.92188 1.25H6.875V2.5H5C4.83424 2.5 4.67527 2.56585 4.55806 2.68306C4.44085 2.80027 4.375 2.95924 4.375 3.125V5.05586H1.25V4.375C1.25 4.20924 1.18415 4.05027 1.06694 3.93306C0.949732 3.81585 0.79076 3.75 0.625 3.75C0.45924 3.75 0.300269 3.81585 0.183058 3.93306C0.065848 4.05027 0 4.20924 0 4.375L0 10.625C0 10.7908 0.065848 10.9497 0.183058 11.0669C0.300269 11.1842 0.45924 11.25 0.625 11.25C0.79076 11.25 0.949732 11.1842 1.06694 11.0669C1.18415 10.9497 1.25 10.7908 1.25 10.625V10H8.125V11.25H7.5C7.33424 11.25 7.17527 11.3158 7.05806 11.4331C6.94085 11.5503 6.875 11.7092 6.875 11.875C6.875 12.0408 6.94085 12.1997 7.05806 12.3169C7.17527 12.4342 7.33424 12.5 7.5 12.5H13.75C13.9158 12.5 14.0747 12.4342 14.1919 12.3169C14.3092 12.1997 14.375 12.0408 14.375 11.875C14.375 11.7092 14.3092 11.5503 14.1919 11.4331C14.0747 11.3158 13.9158 11.25 13.75 11.25Z" fill="white"/>
<path d="M35 18.75H31.25V20.8252C29.2614 19.0825 26.7067 18.1228 24.0625 18.125C18.226 18.125 13.4428 22.7203 13.1406 28.4828C12.7156 27.2626 12.499 25.9796 12.5 24.6875V13.75H8.75V23.125C8.75 31.536 13.4635 39.9821 24.3143 39.9821C31.25 39.9821 35 34.8856 35 29.0625V18.75ZM24.0625 36.875C22.5173 36.875 21.0069 36.4168 19.7221 35.5584C18.4373 34.6999 17.436 33.4798 16.8447 32.0522C16.2534 30.6247 16.0987 29.0538 16.4001 27.5384C16.7016 26.0229 17.4456 24.6308 18.5382 23.5382C19.6308 22.4456 21.0229 21.7016 22.5384 21.4001C24.0538 21.0987 25.6247 21.2534 27.0522 21.8447C28.4798 22.436 29.6999 23.4373 30.5584 24.7221C31.4168 26.0069 31.875 27.5173 31.875 29.0625C31.8727 31.1338 31.0488 33.1196 29.5842 34.5842C28.1196 36.0488 26.1338 36.8727 24.0625 36.875Z" fill="white"/>
<path d="M24.0625 30.3125C24.7529 30.3125 25.3125 29.7529 25.3125 29.0625C25.3125 28.3721 24.7529 27.8125 24.0625 27.8125C23.3721 27.8125 22.8125 28.3721 22.8125 29.0625C22.8125 29.7529 23.3721 30.3125 24.0625 30.3125Z" fill="white"/>
</svg>
