<svg width="40" height="40" viewBox="0 0 40 40" fill="none" xmlns="http://www.w3.org/2000/svg">
<g clip-path="url(#clip0)">
<path d="M22.5102 7.08524C22.6305 7.08524 22.7279 6.98751 22.7279 6.8672C22.7279 6.7469 22.6305 6.64917 22.5102 6.64917C22.3899 6.64917 22.2922 6.7469 22.2922 6.8672C22.2922 6.98751 22.3899 7.08524 22.5102 7.08524Z" fill="white"/>
<path d="M8.18149 8.5137H24.2036V5.22095H8.18149V8.5137ZM22.51 5.94798C23.0179 5.94798 23.4296 6.35925 23.4296 6.86714C23.4296 7.37466 23.0179 7.7863 22.51 7.7863C22.0025 7.7863 21.5909 7.37466 21.5909 6.86714C21.5916 6.35962 22.0029 5.94872 22.5104 5.94798H22.51ZM19.3513 5.94798C19.8592 5.94798 20.2705 6.35925 20.2705 6.86714C20.2705 7.37466 19.8592 7.7863 19.3513 7.7863C18.8438 7.7863 18.4321 7.37466 18.4321 6.86714C18.4329 6.35962 18.8442 5.94872 19.3513 5.94798ZM16.1926 5.94798C16.7001 5.94798 17.1117 6.35925 17.1117 6.86714C17.1117 7.37466 16.7001 7.7863 16.1926 7.7863C15.685 7.7863 15.2734 7.37466 15.2734 6.86714C15.2741 6.35962 15.6854 5.94872 16.1926 5.94798ZM13.0334 5.94798C13.5413 5.94798 13.953 6.35925 13.953 6.86714C13.953 7.37466 13.5413 7.7863 13.0334 7.7863C12.5259 7.7863 12.1143 7.37466 12.1143 6.86714C12.115 6.35962 12.5263 5.94872 13.0338 5.94798H13.0334ZM9.87469 5.94798C10.3826 5.94798 10.7938 6.35925 10.7938 6.86714C10.7938 7.37466 10.3826 7.7863 9.87469 7.7863C9.36717 7.7863 8.95553 7.37466 8.95553 6.86714C8.95627 6.35962 9.36754 5.94872 9.87469 5.94798Z" fill="white"/>
<path d="M16.1929 15.8888C16.7119 15.8888 17.1324 15.4683 17.1324 14.9493C17.1324 14.4303 16.7119 14.0098 16.1929 14.0098C15.6739 14.0098 15.2534 14.4303 15.2534 14.9493C15.2541 15.4679 15.6743 15.8884 16.1929 15.8888Z" fill="white"/>
<path d="M22.7277 20.0422C22.209 20.0422 21.7881 20.4628 21.7881 20.9818C21.7881 21.5007 22.209 21.9213 22.7277 21.9213C23.2467 21.9213 23.6672 21.5007 23.6672 20.9818C23.6668 20.4631 23.2467 20.043 22.7277 20.0422Z" fill="white"/>
<path d="M16.1929 28.1552C16.7119 28.1552 17.1328 27.7346 17.1328 27.2156C17.1328 26.6967 16.7119 26.2758 16.1929 26.2761C15.6739 26.2761 15.2534 26.697 15.2534 27.216C15.2541 27.7346 15.6746 28.1544 16.1929 28.1552Z" fill="white"/>
<path d="M13.0339 7.08524C13.1542 7.08524 13.2515 6.98751 13.2515 6.8672C13.2515 6.7469 13.1542 6.64917 13.0339 6.64917C12.9136 6.64917 12.8158 6.7469 12.8158 6.8672C12.8158 6.98751 12.9136 7.08524 13.0339 7.08524Z" fill="white"/>
<path d="M19.3515 7.08524C19.4722 7.08524 19.5695 6.98751 19.5695 6.8672C19.5695 6.7469 19.4722 6.64917 19.3515 6.64917C19.2312 6.64917 19.1338 6.7469 19.1338 6.8672C19.1338 6.98751 19.2312 7.08524 19.3515 7.08524Z" fill="white"/>
<path d="M16.1931 7.08524C16.3134 7.08524 16.4112 6.98751 16.4112 6.8672C16.4112 6.7469 16.3134 6.64917 16.1931 6.64917C16.0728 6.64917 15.9751 6.7469 15.9751 6.8672C15.9751 6.98751 16.0728 7.08524 16.1931 7.08524Z" fill="white"/>
<path d="M22.7277 14.0098C22.209 14.0098 21.7881 14.4303 21.7881 14.9493C21.7881 15.4683 22.2087 15.8888 22.7277 15.8888C23.2467 15.8892 23.6672 15.4683 23.6672 14.9493C23.6668 14.4307 23.2467 14.0105 22.7277 14.0098Z" fill="white"/>
<path d="M9.87515 7.08524C9.99583 7.08524 10.0932 6.98751 10.0932 6.8672C10.0932 6.7469 9.99583 6.64917 9.87515 6.64917C9.75484 6.64917 9.65749 6.7469 9.65749 6.8672C9.65749 6.98751 9.75484 7.08524 9.87515 7.08524Z" fill="white"/>
<path d="M9.65716 26.2761C9.13816 26.2761 8.71764 26.6967 8.71727 27.2156C8.71727 27.7343 9.13779 28.1552 9.65678 28.1552C10.1758 28.1555 10.5963 27.735 10.5967 27.216C10.5963 26.6974 10.1758 26.2765 9.65716 26.2761Z" fill="white"/>
<path d="M33.3194 22.7213V3.95277C33.3231 2.74857 32.5894 1.66505 31.4703 1.22158L31.2375 1.12866C31.2382 1.14754 31.239 1.16679 31.239 1.18641V21.362C31.9131 21.8339 32.6064 22.2867 33.3194 22.7213Z" fill="white"/>
<path d="M22.172 26.2571C22.0798 26.2986 22.021 26.3904 22.0217 26.4915V30.874C22.0217 33.0296 22.7854 34.9349 24.2946 36.5611V36.5304C24.2946 36.2161 24.5493 35.9618 24.8632 35.9618C25.1775 35.9618 25.4318 36.2161 25.4318 36.5304V37.0468C25.4318 37.2067 25.3644 37.3592 25.2456 37.4665C25.2693 37.4865 25.2937 37.5061 25.3174 37.5261C25.4 37.5654 25.4718 37.6239 25.5269 37.6968C25.6521 37.7964 25.7798 37.8952 25.9119 37.9922C27.0876 38.8466 28.3825 39.5229 29.7555 40C31.1755 39.5247 32.5196 38.8469 33.7464 37.9881C34.01 37.8008 34.2606 37.6083 34.4982 37.4114C34.4123 37.3092 34.3653 37.18 34.3657 37.0468V36.5304C34.3661 36.2275 34.6041 35.978 34.9065 35.9636C35.2093 35.9488 35.4703 36.1742 35.4999 36.4756C37.0117 34.8679 37.7758 32.9914 37.7758 30.8744V26.4915C37.7765 26.3904 37.7177 26.2986 37.6255 26.2568C34.8984 25.0511 32.3082 23.5574 29.8987 21.8005C27.4893 23.5574 24.8991 25.0515 22.172 26.2571ZM27.1106 37.0468C27.1106 37.361 26.8559 37.6154 26.542 37.6154C26.2277 37.6154 25.9734 37.361 25.9734 37.0468V36.5304C25.9734 36.2164 26.2277 35.9618 26.542 35.9618C26.8559 35.9618 27.1106 36.2164 27.1106 36.5304V37.0468ZM28.789 37.0468C28.789 37.361 28.5343 37.6154 28.2204 37.6154C27.9064 37.6154 27.6518 37.361 27.6518 37.0468V36.5304C27.6518 36.2164 27.9064 35.9618 28.2204 35.9618C28.5343 35.9618 28.789 36.2164 28.789 36.5304V37.0468ZM30.4673 37.0468C30.4673 37.361 30.213 37.6154 29.8987 37.6154C29.5848 37.6154 29.3302 37.361 29.3302 37.0468V36.5304C29.3302 36.2164 29.5848 35.9618 29.8987 35.9618C30.213 35.9618 30.4673 36.2164 30.4673 36.5304V37.0468ZM32.1457 37.0468C32.1457 37.361 31.8914 37.6154 31.5771 37.6154C31.2632 37.6154 31.0085 37.361 31.0085 37.0468V36.5304C31.0085 36.2164 31.2632 35.9618 31.5771 35.9618C31.8914 35.9618 32.1457 36.2164 32.1457 36.5304V37.0468ZM33.8245 36.5304V37.0468C33.8245 37.361 33.5698 37.6154 33.2559 37.6154C32.9416 37.6154 32.6873 37.361 32.6873 37.0468V36.5304C32.6873 36.2164 32.9416 35.9618 33.2559 35.9618C33.5698 35.9618 33.8245 36.2164 33.8245 36.5304ZM32.9379 28.7618C33.1597 28.9835 33.1597 29.3437 32.9379 29.5658L29.576 32.9274C29.3538 33.1495 28.994 33.1495 28.7719 32.9274L26.8596 31.015C26.6375 30.7929 26.6375 30.4331 26.8596 30.211C27.0817 29.9889 27.4419 29.9889 27.664 30.211L29.1747 31.7214L32.1343 28.7618C32.3564 28.54 32.7158 28.54 32.9379 28.7618Z" fill="white"/>
<path d="M9.65717 20.0422C9.13818 20.0422 8.71765 20.4628 8.71765 20.9818C8.71765 21.5007 9.13818 21.9213 9.65717 21.9213C10.1762 21.9213 10.5967 21.5007 10.5967 20.9818C10.5959 20.4631 10.1758 20.0426 9.65717 20.0422Z" fill="white"/>
<path d="M9.65716 14.0098C9.13816 14.0098 8.71727 14.4303 8.71727 14.9493C8.71727 15.4683 9.13816 15.8888 9.65716 15.8888C10.1761 15.8888 10.5967 15.4683 10.5967 14.9493C10.5959 14.4307 10.1758 14.0105 9.65716 14.0098Z" fill="white"/>
<path d="M3.41193 35.3894L3.50484 35.6222C3.94832 36.7413 5.03183 37.475 6.23566 37.4709H23.5949C22.9937 36.8461 22.4743 36.1468 22.0494 35.3909H3.46967C3.45005 35.3909 3.43118 35.3898 3.41193 35.3894Z" fill="white"/>
<path d="M16.1929 21.9213C16.7119 21.9213 17.1324 21.5007 17.1324 20.9818C17.1324 20.4631 16.7119 20.0422 16.1929 20.0422C15.6739 20.0426 15.2534 20.4631 15.2534 20.9818C15.2541 21.5007 15.6743 21.9209 16.1929 21.9213Z" fill="white"/>
<path d="M28.9155 0H3.46937C2.81452 0.00074036 2.28368 0.531578 2.28294 1.18643V33.0674C2.28368 33.7223 2.81452 34.2531 3.46937 34.2539H21.5112C21.0922 33.1766 20.8797 32.0302 20.8841 30.8745V26.4916C20.8837 25.9415 21.2069 25.4425 21.7092 25.2181C24.4886 23.9903 27.1213 22.454 29.5574 20.6379C29.714 20.5209 29.9198 20.4928 30.102 20.5635V1.18643C30.1012 0.531208 29.5704 0.00074036 28.9155 0ZM9.6573 29.2923C8.51011 29.2923 7.58022 28.3624 7.58022 27.2153C7.58059 26.0684 8.51048 25.1385 9.65767 25.1389C10.8045 25.1389 11.7344 26.0692 11.734 27.216C11.7325 28.3624 10.8034 29.2912 9.6573 29.2923ZM9.6573 23.0585C8.51011 23.0585 7.58059 22.129 7.58059 20.9818C7.58059 19.835 8.51048 18.9051 9.6573 18.9051C10.8041 18.9055 11.734 19.835 11.734 20.9818C11.7325 22.1282 10.8037 23.0574 9.6573 23.0585ZM9.6573 17.0261C8.51011 17.0261 7.58022 16.0962 7.58022 14.9493C7.58022 13.8022 8.51011 12.8726 9.6573 12.8726C10.8041 12.8726 11.734 13.8025 11.734 14.9493C11.7325 16.0958 10.8037 17.0249 9.6573 17.0261ZM17.8031 33.0782H14.5818C14.2679 33.0782 14.0132 32.8239 14.0132 32.5096C14.0132 32.1957 14.2679 31.941 14.5818 31.941H17.8031C18.117 31.941 18.3717 32.1957 18.3717 32.5096C18.3717 32.8239 18.117 33.0782 17.8031 33.0782ZM16.1925 18.9051C17.3393 18.9051 18.2692 19.835 18.2692 20.9818C18.2692 22.1286 17.3396 23.0585 16.1928 23.0585C15.0456 23.0585 14.1157 22.129 14.1157 20.9818C14.1169 19.8354 15.046 18.9062 16.1925 18.9051ZM14.1157 14.9493C14.1157 13.8025 15.0456 12.8726 16.1925 12.8726C17.3396 12.8726 18.2695 13.8022 18.2695 14.9493C18.2695 16.0962 17.3396 17.0261 16.1925 17.0261C15.0464 17.0249 14.1172 16.0958 14.1157 14.9493ZM16.1925 25.1389C17.3396 25.1389 18.2695 26.0684 18.2695 27.2156C18.2695 28.3624 17.3396 29.2923 16.1928 29.2923C15.046 29.2927 14.1161 28.3628 14.1157 27.216C14.1169 26.0696 15.046 25.14 16.1925 25.1389ZM22.728 23.0585C21.5808 23.0585 20.6513 22.129 20.6513 20.9818C20.6513 19.835 21.5808 18.9051 22.728 18.9051C23.8748 18.9051 24.8047 19.835 24.8047 20.9818C24.8032 22.1282 23.8741 23.0574 22.7276 23.0585H22.728ZM22.728 17.0261C21.5808 17.0261 20.6509 16.0965 20.6509 14.9493C20.6509 13.8025 21.5808 12.8726 22.728 12.8726C23.8748 12.8726 24.8047 13.8025 24.8047 14.9493C24.8032 16.0958 23.8741 17.0249 22.7276 17.0261H22.728ZM25.3407 9.08237C25.3407 9.39628 25.0864 9.65096 24.7721 9.65096H7.61279C7.29888 9.65096 7.0442 9.39628 7.0442 9.08237V4.65242C7.0442 4.33814 7.29888 4.08383 7.61279 4.08383H24.7721C25.086 4.08383 25.3407 4.33814 25.3407 4.65242V9.08237Z" fill="white"/>
</g>
<defs>
<clipPath id="clip0">
<rect width="40" height="40" fill="white"/>
</clipPath>
</defs>
</svg>
