<svg width="40" height="40" viewBox="0 0 40 40" fill="none" xmlns="http://www.w3.org/2000/svg">
<g clip-path="url(#clip0)">
<path d="M27.2249 26.6141C29.1518 23.9355 30.3364 20.8576 30.7062 17.6088L20 14.5645L9.29382 17.6088C9.66353 20.8575 10.8481 23.9355 12.7751 26.6141C14.6513 29.2219 17.1412 31.32 20 32.7078C22.8588 31.32 25.3488 29.2219 27.2249 26.6141Z" fill="white"/>
<path d="M20 12.0804L30.8315 15.1604V10.1924L20 7.1123L9.1685 10.1924V15.1604L20 12.0804Z" fill="white"/>
<path d="M21.1947 0V4.96807L33.2209 8.38788V15.3981C33.2209 19.9597 31.8183 24.3207 29.1646 28.0095C27.09 30.893 24.3461 33.222 21.1947 34.7826V40.0001C25.9533 38.1457 30.0374 34.979 33.0436 30.8002C36.2857 26.2935 37.9995 20.9675 37.9995 15.3981V4.7786L21.1947 0Z" fill="white"/>
<path d="M18.8052 34.7826C15.6539 33.2219 12.9099 30.8929 10.8355 28.0095C8.18177 24.3207 6.77909 19.9597 6.77909 15.398V8.3878L18.8052 4.96799V0L2.00049 4.7786V15.398C2.00049 20.9674 3.71425 26.2934 6.95638 30.8001C9.96267 34.979 14.0467 38.1457 18.8052 40V34.7826Z" fill="white"/>
</g>
<defs>
<clipPath id="clip0">
<rect width="40" height="40" fill="white"/>
</clipPath>
</defs>
</svg>
