<svg width="40" height="40" viewBox="0 0 40 40" fill="none" xmlns="http://www.w3.org/2000/svg">
<g clip-path="url(#clip0)">
<path d="M36.7006 5.44164C35.1234 2.76039 33.5714 0.582188 33.506 0.490703C33.2861 0.182734 32.931 0 32.5525 0C32.1741 0 31.8189 0.182734 31.5989 0.490703C31.5336 0.582109 29.9816 2.76039 28.4044 5.44164C28.1784 5.82578 27.9649 6.19836 27.7625 6.56063C28.2697 7.38008 28.7892 8.2375 29.3067 9.11727C32.0218 13.733 33.9038 17.5926 34.9804 20.7652C37.8987 19.756 40.0004 16.9809 40.0004 13.724C40.0004 11.9255 38.921 9.21633 36.7006 5.44164Z" fill="white"/>
<path d="M20.9536 0.490703C20.7336 0.182734 20.3785 0 20 0C19.6216 0 19.2664 0.182734 19.0464 0.490703C19.0148 0.535078 15.8421 4.98773 12.7139 10.3055C8.44206 17.5677 6.27612 22.9409 6.27612 26.276C6.27604 33.8434 12.4326 40 20 40C27.5675 40 33.724 33.8434 33.724 26.276C33.724 22.9409 31.558 17.5677 27.2862 10.3055C24.158 4.98773 20.9853 0.535078 20.9536 0.490703Z" fill="white"/>
<path d="M10.357 9.69401C9.29148 8.01597 8.44922 6.83362 8.40148 6.76683C8.18148 6.45886 7.82633 6.27612 7.44789 6.27612C7.06945 6.27612 6.7143 6.45886 6.4943 6.76683C6.42898 6.85823 4.87695 9.03651 3.29977 11.7178C1.07938 15.4925 0 18.2016 0 20C0 22.8376 1.59531 25.3094 3.93602 26.5664C3.90219 24.6671 4.14203 20.3898 10.357 9.69401Z" fill="white"/>
</g>
<defs>
<clipPath id="clip0">
<rect width="40" height="40" fill="white"/>
</clipPath>
</defs>
</svg>
